<svg xmlns="http://www.w3.org/2000/svg" xmlns:xlink="http://www.w3.org/1999/xlink" viewBox="0 0 26 26" fill="#083d77">
  <path d="M13 2C10.239 2 8 4.239 8 7C8 9.419 9.718 11.435437 12 11.898438C12 11.898438 12.341 12 13 12C13.576 12 14 11.898438 14 11.898438C16.282 11.435438 18 9.419 18 7C18 4.239 15.761 2 13 2 z M 11 4L14.5 4L14.521484 5L12 5L12 6L13 6C14.105 6 15 6.895 15 8C15 9.105 14.105 10 13 10C11.895 10 11 9.105 11 8L12 8C12 8.552 12.448 9 13 9C13.552 9 14 8.552 14 8C14 7.448 13.552 7 13 7L11 7L11 4 z M 2 9L2 23.001953C2 24.093808 2.9061918 25 3.9980469 25L22.013672 25C23.098121 25 24 24.098121 24 23.013672L24 9L22 9L22 23L4 23L4 9L2 9 z M 12 14L12 18L10 18L13 22L16 18L14 18L14 14L12 14 z" fill="#083d77" />
</svg>