<svg xmlns="http://www.w3.org/2000/svg" xmlns:xlink="http://www.w3.org/1999/xlink" viewBox="0 0 48 48"><path fill="#3f51b5" d="M11,19H5v-4h6V19z M11,29H5v4h6V29z M11,8H5v4h6V8z M11,36H5v4h6V36z M11,22H5v4h6V22z"/><path fill="#2196f3" d="M43,19h-4v-4h4V19z M43,29h-4v4h4V29z M43,8h-4v4h4V8z M43,36h-4v4h4V36z M35,29h-4v4h4V29z M35,8h-4v4h4V8z M27,15H15v4h12V15z M27,29H15v4h12V29z M27,8H15v4h12V8z M27,36H15v4h12V36z M27,15H15v4h12V15z M43,22h-4v4h4V22z M27,22H15v4h12V22z M27,22H15v4h12V22z M27,29H15v4h12V29z M27,8H15v4h12V8z M27,36H15v4h12V36z"/></svg>