<svg xmlns="http://www.w3.org/2000/svg" xmlns:xlink="http://www.w3.org/1999/xlink" viewBox="0 0 48 48" fill="#083D77">
  <path d="M19 3C15.428062 3 12.5 5.9280619 12.5 9.5C12.5 10.815038 12.994068 11.973486 13.673828 13L8.5 13C7.1364058 13 6 14.136406 6 15.5L6 22.5C6 23.670167 6.9008442 24.530047 8 24.791016L8 37.5C8 41.071938 10.928062 44 14.5 44L33.5 44C37.071938 44 40 41.071938 40 37.5L40 24.791016C41.099156 24.530047 42 23.670167 42 22.5L42 15.5C42 14.136406 40.863594 13 39.5 13L34.326172 13C35.005932 11.973486 35.5 10.815038 35.5 9.5C35.5 5.9280619 32.571938 3 29 3C26.951606 3 25.194111 4.0224818 24 5.5175781C22.805889 4.0224818 21.048394 3 19 3 z M 19 6C20.950062 6 22.5 7.5499381 22.5 9.5L22.5 13L19 13C17.049938 13 15.5 11.450062 15.5 9.5C15.5 7.5499381 17.049938 6 19 6 z M 29 6C30.950062 6 32.5 7.5499381 32.5 9.5C32.5 11.450062 30.950062 13 29 13L25.5 13L25.5 9.5C25.5 7.5499381 27.049938 6 29 6 z M 9 16L19 16L22.5 16L22.5 22L9 22L9 16 z M 25.5 16L29 16L39 16L39 22L25.5 22L25.5 16 z M 11 25L22.5 25L22.5 41L14.5 41C12.549938 41 11 39.450062 11 37.5L11 25 z M 25.5 25L37 25L37 37.5C37 39.450062 35.450062 41 33.5 41L25.5 41L25.5 25 z" fill="#083D77" />
</svg>