<svg xmlns="http://www.w3.org/2000/svg" xmlns:xlink="http://www.w3.org/1999/xlink" viewBox="0 0 26 26" fill="#083d77">
  <path d="M5 2C3.300781 2 2 3.300781 2 5L2 21C2 22.699219 3.300781 24 5 24L21 24C22.699219 24 24 22.699219 24 21L24 5C24 3.300781 22.699219 2 21 2L16 2C16 3.699219 14.699219 5 13 5C11.300781 5 10 3.699219 10 2 Z M 13 8C16.300781 8 19 10.699219 19 14C19 17.300781 16.300781 20 13 20C9.699219 20 7 17.300781 7 14C7 10.699219 9.699219 8 13 8 Z M 12.5 9L12 13.6875L10.1875 17L11.3125 17.8125L14 14.3125L13.5 9Z" fill="#083d77" />
</svg>