<svg xmlns="http://www.w3.org/2000/svg" xmlns:xlink="http://www.w3.org/1999/xlink" width="48" height="48" viewBox="0 0 48 48"><path fill="#FFC107" d="M41,11H7c0,2.209-1.791,4-4,4v17c2.209,0,4,1.791,4,4h34c0-2.209,1.791-4,4-4V15C42.791,15,41,13.209,41,11z"/><path fill="#795548" d="M31.5 17A1.5 1.5 0 1 0 31.5 20 1.5 1.5 0 1 0 31.5 17zM31.5 12A1.5 1.5 0 1 0 31.5 15 1.5 1.5 0 1 0 31.5 12zM31.5 22A1.5 1.5 0 1 0 31.5 25 1.5 1.5 0 1 0 31.5 22zM31.5 27A1.5 1.5 0 1 0 31.5 30 1.5 1.5 0 1 0 31.5 27zM31.5 32A1.5 1.5 0 1 0 31.5 35 1.5 1.5 0 1 0 31.5 32z"/><g><path fill="#BC8413" d="M8 19H26V22H8zM8 25H20V28H8zM40 27.879h-2.018v-6.651L36 21.827v-1.583l3.814-1.365H40V27.879z"/></g></svg>