<?xml version="1.0" standalone="no"?>
<!DOCTYPE svg PUBLIC "-//W3C//DTD SVG 20010904//EN"
 "http://www.w3.org/TR/2001/REC-SVG-20010904/DTD/svg10.dtd">
<svg version="1.0" xmlns="http://www.w3.org/2000/svg"
 width="3508.000000pt" height="2480.000000pt" viewBox="0 0 3508.000000 2480.000000"
 preserveAspectRatio="xMidYMid meet">

<g transform="translate(0.000000,2480.000000) scale(0.100000,-0.100000)"
fill="#ffffff" stroke="none">
<path d="M15813 19925 c-199 -43 -352 -192 -398 -387 -22 -93 -19 -267 5 -362
53 -210 197 -347 410 -392 89 -19 241 -14 335 12 183 49 322 189 372 375 22
86 22 270 -1 359 -53 205 -194 349 -387 395 -79 18 -251 18 -336 0z m243 -210
c63 -18 123 -79 161 -160 24 -52 28 -75 31 -182 4 -103 1 -132 -16 -190 -39
-127 -127 -196 -252 -196 -187 0 -292 159 -277 421 6 112 26 176 76 233 68 80
167 107 277 74z"/>
<path d="M17144 19923 c3 -10 57 -265 121 -568 64 -302 117 -550 118 -552 4
-3 312 -21 318 -17 3 1 56 160 119 353 63 192 117 348 120 345 2 -3 39 -165
82 -361 42 -195 78 -356 80 -358 7 -7 313 -23 319 -16 10 12 363 1091 358
1096 -5 4 -281 24 -287 20 -1 -1 -50 -166 -109 -366 -58 -200 -109 -367 -112
-371 -4 -5 -40 162 -81 370 -40 207 -76 380 -79 384 -3 3 -69 9 -147 13 l-140
7 -118 -358 c-64 -198 -120 -368 -125 -378 -5 -13 -30 119 -72 368 -58 353
-65 387 -84 391 -11 2 -80 7 -153 10 -126 6 -133 5 -128 -12z"/>
<path d="M14118 19766 c-141 -17 -259 -34 -263 -37 -6 -6 123 -1100 130 -1108
4 -4 277 28 283 33 1 2 -6 78 -18 169 -11 92 -20 172 -20 180 0 10 30 17 111
26 199 23 290 61 379 157 131 142 126 395 -9 517 -53 48 -89 66 -169 83 -90
19 -126 17 -424 -20z m288 -197 c85 -22 130 -111 105 -206 -20 -75 -94 -114
-241 -129 -64 -6 -70 -5 -70 12 -1 11 -9 84 -20 164 -10 80 -17 146 -16 147 3
4 134 20 169 22 16 0 48 -4 73 -10z"/>
<path d="M19445 19748 c-7 -23 -163 -1093 -159 -1097 4 -4 796 -122 800 -119
7 8 31 204 25 209 -3 4 -118 23 -256 43 -137 21 -251 39 -253 40 -3 3 37 269
41 271 1 1 104 -14 230 -33 125 -19 233 -32 240 -29 14 5 44 194 33 204 -3 3
-110 22 -238 40 -128 19 -234 36 -235 36 -3 3 28 181 32 185 2 3 117 -12 255
-33 138 -20 253 -35 256 -32 8 8 35 199 29 206 -5 4 -757 120 -788 121 -4 0
-9 -6 -12 -12z"/>
<path d="M20945 19498 c-9 -31 -245 -1035 -247 -1057 -3 -24 2 -26 132 -57 74
-18 137 -28 140 -24 3 5 25 94 49 197 24 103 45 189 46 191 2 3 126 -25 130
-30 2 -2 47 -104 100 -228 53 -124 102 -230 108 -236 12 -11 327 -88 333 -81
2 2 -50 122 -116 266 -66 144 -121 267 -123 273 -1 5 17 16 40 23 99 30 186
105 225 193 31 70 36 186 11 243 -39 89 -115 153 -222 191 -44 15 -580 148
-597 148 -3 0 -6 -6 -9 -12z m376 -289 c42 -11 90 -29 108 -40 41 -25 64 -79
56 -129 -14 -83 -71 -130 -160 -130 -45 0 -179 26 -201 39 -7 4 1 53 24 150
l34 143 32 -6 c17 -4 65 -16 107 -27z"/>
<path d="M11825 19330 c-176 -40 -520 -136 -519 -146 5 -32 278 -1061 284
-1067 8 -9 413 94 552 139 191 63 297 184 298 340 0 169 -89 271 -253 290 -56
7 -56 7 -34 24 29 23 73 105 82 151 10 56 -12 143 -48 192 -67 88 -192 115
-362 77z m87 -232 c25 -12 48 -61 48 -102 0 -57 -38 -92 -133 -120 -147 -45
-129 -52 -160 67 -15 58 -27 110 -27 115 0 12 41 25 145 47 59 13 93 11 127
-7z m167 -401 c56 -28 83 -137 47 -191 -9 -14 -35 -35 -59 -47 -39 -20 -247
-84 -251 -77 -10 14 -67 260 -62 266 13 13 211 60 256 61 25 0 56 -5 69 -12z"/>
<path d="M22585 19077 c-24 -63 -355 -1041 -355 -1047 0 -5 60 -28 134 -53
l135 -45 39 111 c22 62 56 163 76 225 21 61 41 112 45 112 3 0 106 -33 228
-74 l222 -74 35 103 34 104 -211 71 c-117 39 -218 74 -226 79 -11 7 -8 26 18
104 l32 95 237 -79 c130 -43 241 -79 247 -79 10 0 70 167 70 193 0 16 -755
268 -760 254z"/>
<path d="M10126 18793 l-148 -57 4 -593 c2 -326 6 -595 9 -598 3 -3 64 17 135
44 l129 48 -2 121 -1 121 96 37 c54 20 141 54 195 74 l97 38 76 -89 c41 -49
81 -89 87 -89 16 0 250 89 260 99 9 9 -758 894 -777 898 -6 1 -78 -23 -160
-54z m248 -441 c71 -84 126 -155 124 -156 -14 -12 -244 -93 -249 -88 -4 4 -9
99 -12 211 -3 112 -2 200 2 195 4 -5 65 -78 135 -162z"/>
<path d="M16250 18624 c-744 -29 -1073 -53 -1635 -115 -2346 -260 -4500 -971
-6030 -1992 -1728 -1152 -2550 -2606 -2314 -4091 197 -1232 1133 -2396 2669
-3318 514 -309 1121 -601 1745 -840 3529 -1353 8258 -1399 11865 -116 2985
1061 4770 2847 4770 4773 0 1312 -828 2575 -2355 3592 -1418 945 -3342 1618
-5515 1927 -541 77 -1152 134 -1780 167 -193 9 -1256 20 -1420 13z m1405 -684
c1309 -69 2415 -233 3534 -525 1181 -308 2213 -729 3100 -1262 1293 -778 2115
-1750 2310 -2733 37 -190 46 -282 46 -495 0 -213 -9 -305 -46 -495 -196 -991
-1022 -1963 -2337 -2749 -1436 -859 -3311 -1439 -5412 -1676 -725 -81 -1251
-109 -2075 -109 -614 0 -833 7 -1305 40 -2704 188 -5122 947 -6750 2117 -979
704 -1604 1544 -1769 2377 -37 190 -46 282 -46 495 0 213 9 305 46 495 195
983 1017 1955 2310 2733 1094 658 2434 1153 3959 1461 969 196 1925 303 3045
340 189 6 1200 -4 1390 -14z"/>
<path d="M22860 15959 c-862 -34 -1580 -420 -2025 -1089 -251 -376 -405 -806
-476 -1325 -27 -195 -37 -686 -19 -903 113 -1359 860 -2302 2019 -2546 193
-41 333 -57 566 -63 411 -11 755 41 1081 163 672 250 1145 780 1328 1488 22
83 66 309 66 337 0 5 -244 9 -550 9 l-550 0 -6 -27 c-22 -103 -58 -226 -85
-291 -124 -312 -360 -534 -689 -650 -114 -40 -212 -59 -375 -73 -358 -31 -714
56 -995 244 -100 67 -291 260 -367 373 -241 354 -363 825 -363 1394 0 864 279
1488 806 1799 142 83 342 151 539 182 115 18 408 16 525 -4 206 -35 403 -112
553 -216 88 -61 217 -192 277 -280 61 -91 127 -235 153 -335 l22 -86 546 0
546 0 -8 48 c-60 322 -204 652 -398 913 -227 304 -494 525 -832 688 -410 198
-780 269 -1289 250z"/>
<path d="M10940 15954 c-485 -27 -913 -146 -1280 -356 -444 -255 -774 -610
-1005 -1083 -161 -328 -249 -627 -302 -1025 -26 -193 -26 -797 0 -980 57 -405
143 -693 307 -1025 318 -645 824 -1086 1505 -1311 282 -92 524 -132 865 -141
704 -18 1254 133 1696 466 l41 31 70 -203 69 -202 412 -3 412 -2 0 1555 0
1555 -1240 0 -1240 0 0 -500 0 -500 710 0 710 0 0 -306 0 -306 -132 -132
c-284 -283 -585 -421 -1054 -482 -196 -26 -534 -23 -685 4 -665 121 -1128 594
-1304 1332 -98 416 -95 948 10 1365 132 527 426 918 840 1121 131 64 255 105
407 136 100 20 141 23 368 23 222 -1 270 -3 375 -23 352 -67 624 -214 800
-435 92 -115 168 -269 205 -414 l11 -43 555 0 554 0 -5 23 c-57 257 -101 391
-190 573 -214 438 -559 775 -1030 1004 -294 144 -579 226 -915 264 -139 16
-425 26 -540 20z"/>
<path d="M15030 12995 l0 -2875 535 0 535 0 0 1080 0 1080 563 0 c614 1 957
11 1142 35 558 72 958 245 1242 538 315 325 458 761 440 1351 -9 307 -53 509
-156 721 -75 153 -161 274 -281 395 -121 121 -239 204 -412 290 -230 114 -459
177 -793 220 -284 36 -444 40 -1642 40 l-1173 0 0 -2875z m2643 1862 c328 -49
532 -169 641 -376 53 -102 67 -167 73 -341 4 -131 2 -170 -15 -254 -68 -326
-284 -512 -687 -588 -104 -20 -150 -21 -847 -25 l-738 -4 0 806 0 806 733 -4
c606 -3 750 -7 840 -20z"/>
<path d="M23830 18242 c-85 -180 -165 -356 -177 -392 -58 -169 -6 -325 149
-442 180 -136 413 -193 562 -138 65 25 138 87 181 155 60 95 350 718 336 723
-7 2 -62 28 -122 58 -61 30 -116 54 -122 54 -7 0 -84 -151 -172 -336 -174
-367 -206 -418 -279 -434 -47 -10 -115 6 -179 44 -80 46 -105 110 -82 201 8
29 84 200 170 380 85 180 154 329 152 331 -5 5 -254 124 -258 124 -2 -1 -74
-148 -159 -328z"/>
<path d="M8885 18225 c-132 -25 -274 -87 -391 -170 -283 -202 -323 -540 -101
-842 112 -151 288 -235 461 -218 191 18 401 132 579 313 l69 69 -130 239 c-71
131 -134 240 -140 242 -8 2 -427 -220 -444 -236 -4 -4 16 -49 44 -100 34 -64
53 -90 61 -84 7 5 51 30 99 55 l86 47 52 -96 c58 -110 62 -97 -46 -150 -119
-58 -227 -63 -321 -15 -107 54 -212 224 -221 356 -6 101 15 160 84 234 99 108
242 154 414 134 47 -6 91 -8 98 -5 16 6 13 13 -54 140 -55 102 -55 102 -92
101 -20 0 -68 -7 -107 -14z"/>
<path d="M25282 17276 l-312 -465 137 -94 c324 -221 536 -358 542 -350 58 82
111 164 111 170 0 4 -95 71 -210 147 -116 76 -210 143 -210 148 0 6 110 174
245 374 135 200 245 368 245 373 0 9 -195 146 -222 156 -10 4 -114 -144 -326
-459z"/>
<path d="M10460 7923 c-56 -9 -149 -48 -213 -91 -225 -148 -366 -522 -299
-790 28 -109 70 -182 152 -262 79 -78 151 -122 273 -168 116 -44 216 -62 337
-60 157 1 145 -9 201 153 27 77 49 143 49 148 0 13 -44 7 -120 -17 -102 -33
-173 -40 -249 -26 -127 23 -234 97 -281 196 -36 73 -40 207 -10 306 45 149
126 260 227 309 41 20 63 24 148 24 87 0 107 -3 155 -26 73 -34 164 -120 220
-207 25 -39 53 -73 62 -75 19 -5 21 0 89 195 l33 97 -29 32 c-109 114 -303
218 -477 254 -63 14 -207 18 -268 8z"/>
<path d="M22075 7463 c-297 -75 -541 -137 -543 -138 -3 -3 54 -235 60 -240 2
-2 91 18 198 45 107 27 195 48 196 47 0 -1 57 -226 125 -500 68 -274 127 -503
130 -508 5 -8 259 45 315 65 8 3 -30 170 -116 514 l-127 510 191 48 c105 25
194 50 198 53 6 5 -4 56 -43 204 -7 25 -15 37 -27 36 -9 0 -260 -62 -557 -136z"/>
<path d="M12281 7405 c-233 -44 -411 -226 -483 -495 -33 -122 -33 -324 0 -427
27 -87 105 -206 167 -258 158 -129 413 -203 606 -176 250 35 427 191 510 450
123 384 -6 709 -338 849 -133 57 -335 81 -462 57z m333 -279 c31 -15 71 -46
91 -69 149 -174 62 -607 -146 -722 -48 -27 -63 -30 -139 -30 -95 1 -147 20
-208 79 -123 115 -129 369 -15 589 41 78 113 148 176 171 64 24 172 16 241
-18z"/>
<path d="M20145 7082 c-88 -13 -162 -26 -164 -28 -4 -3 190 -1277 196 -1283 2
-3 209 26 459 64 310 47 458 73 461 82 3 7 -3 65 -12 128 -15 97 -20 115 -34
111 -39 -12 -572 -88 -577 -83 -4 3 -41 236 -84 517 -43 282 -80 513 -82 514
-2 2 -75 -8 -163 -22z"/>
<path d="M14045 7076 c-9 -28 -148 -1276 -143 -1281 9 -10 287 -39 295 -32 6
7 102 792 103 846 0 16 4 21 9 15 5 -5 107 -216 225 -469 119 -253 219 -461
224 -463 5 -1 78 -11 162 -20 103 -12 153 -15 155 -8 9 29 147 1277 143 1282
-3 2 -71 13 -151 22 l-146 18 -5 -20 c-2 -12 -21 -172 -42 -356 -20 -184 -40
-338 -44 -343 -3 -4 -91 168 -195 383 -104 214 -191 390 -194 390 -3 1 -93 11
-199 24 -135 16 -195 19 -197 12z"/>
<path d="M18862 6953 c-57 -3 -85 -8 -88 -17 -3 -7 7 -200 21 -427 15 -228 24
-438 21 -467 -9 -77 -38 -126 -93 -159 -39 -22 -61 -28 -134 -31 -75 -4 -94
-1 -133 18 -53 25 -83 62 -103 128 -8 29 -24 210 -41 481 l-27 433 -140 -6
c-192 -9 -195 -10 -195 -51 0 -81 51 -836 60 -885 22 -117 104 -242 195 -296
102 -59 146 -68 340 -68 143 0 193 3 244 17 158 45 269 129 324 245 51 110 53
157 23 627 -14 231 -26 430 -26 443 0 24 -6 24 -248 15z"/>
<path d="M16435 6896 c-185 -43 -318 -139 -366 -266 -27 -71 -26 -191 2 -267
51 -136 167 -207 452 -278 229 -57 267 -79 267 -158 0 -69 -60 -109 -181 -122
-152 -16 -350 42 -501 148 -86 59 -88 56 -88 -127 l0 -155 57 -21 c182 -68
359 -97 533 -87 184 11 324 64 418 158 73 72 104 143 110 245 6 114 -14 177
-79 249 -73 79 -169 123 -391 179 -208 53 -252 72 -267 119 -14 40 -4 72 32
105 101 94 410 55 588 -73 27 -19 55 -35 63 -35 17 0 26 70 26 205 l0 101 -82
27 c-140 45 -225 59 -383 63 -104 3 -168 -1 -210 -10z"/>
</g>
</svg>
