<svg xmlns="http://www.w3.org/2000/svg" xmlns:xlink="http://www.w3.org/1999/xlink" width="48" height="48" viewBox="0 0 48 48"><path fill="#455A64" d="M16 36c0-.553-.447-1-1-1h-4c-.553 0-1 .447-1 1v6c0 .553.447 1 1 1h4c.553 0 1-.447 1-1V36zM38 36c0-.553-.447-1-1-1h-4c-.553 0-1 .447-1 1v6c0 .553.447 1 1 1h4c.553 0 1-.447 1-1V36z"/><path fill="#FFC107" d="M37.5,4h-27C9.119,4,8,5.119,8,6.5V37c0,0,0,2,2,2s25.999,0,28,0c2,0,2-2,2-2V6.5C40,5.119,38.881,4,37.5,4z"/><path fill="#FFC107" d="M10 22.499c0 .828-.671 1.5-1.5 1.5h-1c-.829 0-1.5-.672-1.5-1.5V19.5C6 18.671 6.671 18 7.5 18h1c.829 0 1.5.671 1.5 1.5V22.499zM42 22.499c0 .828-.672 1.5-1.5 1.5h-1c-.828 0-1.5-.672-1.5-1.5V19.5c0-.829.672-1.5 1.5-1.5h1c.828 0 1.5.671 1.5 1.5V22.499z"/><path fill="#FFF8E1" d="M13.5 30A2.5 2.5 0 1 0 13.5 35 2.5 2.5 0 1 0 13.5 30zM34.5 30A2.5 2.5 0 1 0 34.5 35 2.5 2.5 0 1 0 34.5 30z"/><path fill="#9FA8DA" d="M36.5,6h-25C10.671,6,10,6.672,10,7.5v9v1v6c0,1.381,1.119,2.5,2.5,2.5h23c1.381,0,2.5-1.119,2.5-2.5v-6v-1v-9C38,6.672,37.328,6,36.5,6z"/><path fill="#263238" d="M38,12H10V7.5C10,6.672,10.671,6,11.5,6h25C37.328,6,38,6.672,38,7.5V12z"/><g><path fill="#64DD17" d="M12 8H23V10H12zM25 8H29V10H25z"/></g><g><path fill="#7986CB" d="M21 26h-8v-7.5c0-.828.671-1.5 1.5-1.5h5c.829 0 1.5.672 1.5 1.5V26zM35 26h-8v-7.5c0-.828.672-1.5 1.5-1.5h5c.828 0 1.5.672 1.5 1.5V26z"/></g><path fill="#3949AB" d="M28.43,26C28.164,25.703,28,25.363,28,25c0-1.084,1.374-2,3-2s3,0.916,3,2c0,0.363-0.164,0.703-0.43,1h2.252C35.927,25.679,36,25.348,36,25c0-2.206-2.243-4-5-4s-5,1.794-5,4c0,0.348,0.073,0.679,0.178,1H28.43z"/></svg>