<svg xmlns="http://www.w3.org/2000/svg" xmlns:xlink="http://www.w3.org/1999/xlink" width="48" height="48" viewBox="0 0 48 48"><path fill="#9CCC65" d="M39,18c0,8.284-15,27-15,27S9,26.284,9,18S15.716,3,24,3S39,9.716,39,18z"/><path fill="#5E35B1" d="M31,25H17c-1.159,0-2-0.826-2-2v-9.875C15,11.951,15.94,11,17.1,11H30.9c1.159,0,2.1,0.951,2.1,2.125V23C33,24.174,32.159,25,31,25"/><path fill="#8668C5" d="M17 13H19V15H17z"/><path fill="#512DA8" d="M20 18c0-2.761 2.24-5 5-5 2.761 0 5 2.239 5 5s-2.239 5-5 5C22.24 23 20 20.761 20 18M28 11l-.981-1.531C26.83 9.176 26.514 9 26.176 9H21.31c-.338 0-.654.176-.842.469L19.486 11H28z"/><path fill="#B388FF" d="M22,18c0-1.656,1.344-3,3-3s3,1.344,3,3s-1.344,3-3,3S22,19.656,22,18"/><path fill="#D2BDFF" d="M25.707,18.293c-0.257,0-0.513-0.098-0.708-0.294c-0.391,0.391-1.023,0.39-1.414,0.001c-0.391-0.391-0.39-1.023,0.001-1.414C23.964,16.208,24.466,16,25,16c0.001,0,0.001,0,0.002,0c0.534,0,1.036,0.209,1.413,0.587c0.39,0.391,0.39,1.024-0.002,1.414C26.218,18.195,25.963,18.293,25.707,18.293z"/></svg>