<svg xmlns="http://www.w3.org/2000/svg" xmlns:xlink="http://www.w3.org/1999/xlink" viewBox="0 0 50 50" fill="#083D77">
  <path d="M25 1C19.464844 1 15 5.464844 15 11L15 13L7.09375 13L7 13.875L3 48.875L2.875 50L47.125 50L47 48.875L43 13.875L42.90625 13L35 13L35 11C35 5.464844 30.535156 1 25 1 Z M 25 3C29.464844 3 33 6.535156 33 11L33 13L17 13L17 11C17 6.535156 20.535156 3 25 3 Z M 8.90625 15L15 15L15 17.28125C14.402344 17.628906 14 18.261719 14 19C14 20.105469 14.894531 21 16 21C17.105469 21 18 20.105469 18 19C18 18.261719 17.597656 17.628906 17 17.28125L17 15L33 15L33 17.28125C32.402344 17.628906 32 18.261719 32 19C32 20.105469 32.894531 21 34 21C35.105469 21 36 20.105469 36 19C36 18.261719 35.597656 17.628906 35 17.28125L35 15L41.09375 15L44.875 48L5.125 48Z" fill="#083D77" />
</svg>