<svg xmlns="http://www.w3.org/2000/svg" xmlns:xlink="http://www.w3.org/1999/xlink" viewBox="0 0 26 26" fill="#083d77">
  <path d="M21.5 1C19.566406 1 18 1.671875 18 2.5C18 3.328125 19.566406 4 21.5 4C23.433594 4 25 3.328125 25 2.5C25 1.671875 23.433594 1 21.5 1 Z M 18 3.5L18 5.5C18 6.300781 19.601563 7 21.5 7C23.398438 7 25 6.300781 25 5.5L25 3.5C25 4.300781 23.398438 5 21.5 5C19.601563 5 18 4.300781 18 3.5 Z M 18 6.5L18 8.5C18 9.300781 19.601563 10 21.5 10C23.398438 10 25 9.300781 25 8.5L25 6.5C25 7.300781 23.398438 8 21.5 8C19.601563 8 18 7.300781 18 6.5 Z M 3.5 7C1.566406 7 0 7.671875 0 8.5C0 9.328125 1.566406 10 3.5 10C5.433594 10 7 9.328125 7 8.5C7 7.671875 5.433594 7 3.5 7 Z M 0 9.5L0 11.5C0 12.300781 1.601563 13 3.5 13C5.398438 13 7 12.300781 7 11.5L7 9.5C7 10.300781 5.398438 11 3.5 11C1.601563 11 0 10.300781 0 9.5 Z M 18 9.5L18 11.5C18 12.300781 19.601563 13 21.5 13C23.398438 13 25 12.300781 25 11.5L25 9.5C25 10.300781 23.398438 11 21.5 11C19.601563 11 18 10.300781 18 9.5 Z M 0 12.5L0 14.5C0 15.300781 1.601563 16 3.5 16C5.398438 16 7 15.300781 7 14.5L7 12.5C7 13.300781 5.398438 14 3.5 14C1.601563 14 0 13.300781 0 12.5 Z M 18 12.5L18 14.5C18 15.300781 19.601563 16 21.5 16C23.398438 16 25 15.300781 25 14.5L25 12.5C25 13.300781 23.398438 14 21.5 14C19.601563 14 18 13.300781 18 12.5 Z M 12.5 13C10.566406 13 9 13.671875 9 14.5C9 15.328125 10.566406 16 12.5 16C14.433594 16 16 15.328125 16 14.5C16 13.671875 14.433594 13 12.5 13 Z M 0 15.5L0 17.5C0 18.300781 1.601563 19 3.5 19C5.398438 19 7 18.300781 7 17.5L7 15.5C7 16.300781 5.398438 17 3.5 17C1.601563 17 0 16.300781 0 15.5 Z M 9 15.5L9 17.5C9 18.300781 10.601563 19 12.5 19C14.398438 19 16 18.300781 16 17.5L16 15.5C16 16.300781 14.398438 17 12.5 17C10.601563 17 9 16.300781 9 15.5 Z M 18 15.5L18 17.5C18 18.300781 19.601563 19 21.5 19C23.398438 19 25 18.300781 25 17.5L25 15.5C25 16.300781 23.398438 17 21.5 17C19.601563 17 18 16.300781 18 15.5 Z M 0 18.5L0 20.5C0 21.300781 1.601563 22 3.5 22C5.398438 22 7 21.300781 7 20.5L7 18.5C7 19.300781 5.398438 20 3.5 20C1.601563 20 0 19.300781 0 18.5 Z M 9 18.5L9 20.5C9 21.300781 10.601563 22 12.5 22C14.398438 22 16 21.300781 16 20.5L16 18.5C16 19.300781 14.398438 20 12.5 20C10.601563 20 9 19.300781 9 18.5 Z M 18 18.5L18 20.5C18 21.300781 19.601563 22 21.5 22C23.398438 22 25 21.300781 25 20.5L25 18.5C25 19.300781 23.398438 20 21.5 20C19.601563 20 18 19.300781 18 18.5 Z M 0 21.5L0 23.5C0 24.300781 1.601563 25 3.5 25C5.398438 25 7 24.300781 7 23.5L7 21.5C7 22.300781 5.398438 23 3.5 23C1.601563 23 0 22.300781 0 21.5 Z M 9 21.5L9 23.5C9 24.300781 10.601563 25 12.5 25C14.398438 25 16 24.300781 16 23.5L16 21.5C16 22.300781 14.398438 23 12.5 23C10.601563 23 9 22.300781 9 21.5 Z M 18 21.5L18 23.5C18 24.300781 19.601563 25 21.5 25C23.398438 25 25 24.300781 25 23.5L25 21.5C25 22.300781 23.398438 23 21.5 23C19.601563 23 18 22.300781 18 21.5Z" fill="#083d77" />
</svg>