 <svg  version="1.0" xmlns="http://www.w3.org/2000/svg"  width="300.000000pt" height="169.000000pt" viewBox="0 0 300.000000 169.000000"  preserveAspectRatio="xMidYMid meet">  <g transform="translate(0.000000,169.000000) scale(0.100000,-0.100000)" fill="#13a438" stroke="none"> <path d="M250 1676 c0 -21 36 -103 49 -110 19 -12 12 -26 -11 -27 -23 0 -23 0 1 -10 43 -17 50 -27 37 -54 -6 -14 -14 -25 -18 -25 -5 0 -8 -9 -8 -19 0 -11 -5 -23 -11 -27 -35 -21 -66 -172 -39 -189 5 -3 12 -28 16 -55 4 -28 10 -50 15 -50 5 0 9 -5 9 -10 0 -15 48 -65 55 -58 3 3 -8 27 -25 54 -60 95 -66 182 -20 274 16 32 39 65 51 73 19 14 20 19 10 54 -33 109 -111 235 -111 179z"/> <path d="M449 1683 c-1 -4 -2 -12 -4 -18 -1 -5 -3 -14 -4 -20 -1 -5 -8 -2 -15 8 -19 24 -31 4 -14 -23 7 -11 16 -20 21 -20 4 0 5 -5 1 -12 -4 -6 -3 -8 4 -5 5 4 8 16 5 26 -3 10 0 22 6 25 6 4 11 2 11 -4 0 -6 5 -8 11 -5 24 16 2 -31 -28 -58 -18 -16 -33 -34 -33 -40 0 -6 15 3 33 20 17 16 40 33 50 36 17 7 24 27 8 27 -5 0 -14 14 -21 30 -13 31 -29 48 -31 33z"/> <path d="M490 1679 c0 -5 5 -7 12 -3 8 5 9 2 5 -10 -4 -11 -3 -15 4 -10 7 4 9 0 5 -14 -4 -11 -2 -23 4 -27 21 -13 24 5 7 40 -16 33 -37 47 -37 24z"/> <path d="M638 1683 c6 -2 10 -9 6 -14 -3 -5 -1 -9 3 -9 5 0 7 -18 5 -40 -3 -32 -1 -40 12 -40 9 0 16 5 16 11 0 5 -4 7 -10 4 -6 -4 -7 5 -4 23 7 32 -10 72 -29 71 -9 0 -9 -2 1 -6z"/> <path d="M810 1670 c6 -12 13 -51 16 -87 3 -37 7 -70 10 -73 3 -3 58 -10 122 -16 102 -9 119 -8 136 5 18 15 19 15 14 0 -5 -14 5 -17 60 -23 114 -10 217 -7 237 7 29 22 12 32 -57 35 -34 2 -71 5 -80 8 -12 4 -18 0 -18 -11 0 -12 -5 -15 -16 -11 -9 3 -18 6 -20 6 -3 0 -3 4 1 10 3 6 -29 8 -85 7 -49 -1 -90 1 -90 6 0 4 -12 7 -27 7 -19 0 -24 -3 -15 -9 11 -7 10 -10 -3 -15 -24 -9 -25 -8 -18 10 5 14 3 15 -15 5 -17 -9 -23 -8 -31 6 -6 10 -11 12 -11 6 0 -18 -27 -16 -34 2 -3 8 -12 15 -21 15 -21 0 -19 16 3 25 16 6 16 7 -1 16 -23 14 -12 29 21 29 24 1 22 3 -13 15 -22 8 -42 15 -45 16 -3 0 9 7 25 14 l30 14 -43 1 c-40 0 -42 -1 -32 -20z"/> <path d="M1393 1683 c26 -2 67 -2 90 0 23 2 2 3 -48 3 -49 0 -68 -1 -42 -3z"/> <path d="M686 1658 c4 -13 8 -35 9 -51 0 -15 5 -27 10 -27 18 2 2 100 -16 100 -6 0 -7 -9 -3 -22z"/> <path d="M1030 1671 c0 -12 2 -12 130 -17 49 -2 79 0 71 5 -8 5 -41 9 -74 10 -33 0 -75 3 -93 7 -22 4 -34 2 -34 -5z"/> <path d="M1360 1640 c84 -12 192 -12 185 0 -4 6 -54 9 -123 9 -99 -2 -108 -3 -62 -9z"/> <path d="M618 1627 c-12 -29 -10 -63 3 -50 6 6 9 23 7 39 -2 24 -4 26 -10 11z"/> <path d="M378 1624 c-7 -6 18 -64 27 -64 3 0 5 8 5 18 0 23 -23 56 -32 46z"/> <path d="M1061 1616 c2 -2 31 -6 64 -9 39 -4 54 -3 45 3 -14 9 -119 15 -109 6z"/> <path d="M1300 1601 c41 -12 180 -13 180 -2 0 7 -37 11 -102 10 -61 -1 -93 -4 -78 -8z"/> <path d="M1080 1570 c44 -11 158 -16 167 -7 3 4 -14 7 -38 7 -24 1 -71 3 -104 5 -50 4 -54 3 -25 -5z"/> <path d="M590 1552 c-48 -3 -110 -23 -104 -33 3 -5 -2 -6 -10 -3 -13 5 -86 -30 -86 -41 0 -1 24 -3 53 -3 100 -1 257 -82 312 -161 16 -24 31 -61 34 -84 6 -38 9 -42 49 -53 38 -11 42 -11 42 4 0 33 -91 161 -170 240 -60 60 -44 62 21 3 29 -27 57 -47 62 -44 4 2 6 0 5 -6 -2 -5 25 -46 60 -90 54 -70 101 -165 87 -179 -2 -2 -29 0 -60 6 l-56 9 40 -41 c22 -23 51 -67 65 -98 29 -66 68 -124 126 -188 38 -41 47 -39 12 3 -9 10 -11 17 -4 17 6 0 17 -9 25 -20 8 -11 16 -18 18 -15 9 8 79 -16 79 -27 0 -6 7 -20 17 -30 19 -21 10 -37 -10 -17 -14 15 -17 21 -17 40 0 8 -5 8 -15 -1 -12 -10 -15 -10 -15 3 0 15 -28 32 -38 23 -5 -6 31 -59 75 -109 18 -20 33 -44 33 -52 0 -14 32 -87 106 -239 22 -46 23 -50 6 -62 -9 -7 -22 -14 -28 -14 -7 0 -15 -7 -18 -16 -9 -24 -7 -34 7 -29 6 3 19 1 27 -5 12 -7 12 -12 2 -22 -9 -9 -12 -9 -12 0 0 7 -3 11 -7 10 -5 0 -19 4 -33 10 -14 6 -19 11 -12 11 17 1 15 21 -3 21 -8 0 -15 -8 -15 -17 0 -14 -2 -15 -9 -4 -5 7 -14 10 -20 7 -6 -4 -11 -2 -11 4 0 6 7 13 15 16 9 4 15 19 15 35 0 22 5 29 20 29 11 0 20 -5 20 -11 0 -5 -3 -8 -7 -6 -5 3 -8 -6 -8 -19 0 -22 1 -23 13 -7 20 27 14 41 -24 59 -25 12 -38 14 -46 6 -8 -8 -4 -10 13 -6 13 2 19 2 12 -2 -7 -3 -9 -12 -6 -21 4 -10 2 -14 -5 -9 -6 3 -13 2 -17 -4 -3 -6 1 -13 9 -16 9 -3 13 -10 10 -15 -3 -5 -9 -7 -13 -5 -4 3 -8 -6 -9 -18 -2 -31 31 -59 69 -58 23 1 33 -4 36 -19 4 -16 8 -17 14 -8 4 8 12 10 16 5 4 -4 1 -13 -7 -19 -8 -7 -21 -24 -29 -39 -13 -25 -15 -26 -27 -10 -18 23 -18 1 0 -24 14 -19 15 -19 39 4 13 12 29 41 36 62 6 22 16 40 21 40 18 0 21 -22 6 -45 -15 -22 -15 -25 -1 -25 14 0 20 12 16 33 -1 5 3 6 7 3 5 -3 7 -17 5 -31 -3 -13 -9 -23 -13 -20 -9 6 -41 -56 -34 -67 3 -4 0 -8 -7 -8 -10 0 -10 -3 -2 -11 18 -18 64 22 51 44 -6 13 -5 17 5 17 11 0 14 12 13 44 -1 24 2 42 6 40 10 -6 23 24 14 33 -3 3 -12 0 -21 -7 -9 -7 -19 -10 -22 -6 -4 4 -1 11 7 16 12 8 12 10 -4 10 -11 0 -28 -7 -38 -17 -14 -13 -18 -13 -18 -2 1 16 24 49 34 49 4 0 4 -4 1 -10 -3 -5 0 -7 8 -4 8 3 13 13 10 23 -2 9 4 24 14 32 16 12 17 12 6 -1 -8 -10 -9 -21 -3 -30 7 -11 10 -12 10 -2 0 7 4 11 9 8 5 -3 11 3 14 14 3 11 0 20 -5 20 -7 0 -6 5 1 14 9 11 9 15 -1 20 -7 3 -4 5 7 3 26 -2 30 8 14 45 -11 27 -10 32 4 43 18 13 24 30 7 20 -17 -11 -11 7 8 21 16 12 15 13 -5 14 -13 0 -24 -6 -25 -12 0 -7 -2 -17 -2 -23 -1 -5 -5 -16 -9 -22 -5 -7 -6 -17 -3 -22 8 -12 -19 -33 -29 -23 -5 4 -5 1 -1 -6 4 -7 12 -9 18 -6 6 4 8 1 6 -7 -3 -8 -11 -13 -17 -11 -7 1 -10 -2 -7 -7 4 -5 2 -12 -4 -16 -6 -4 -8 -11 -5 -16 4 -5 -1 -12 -9 -15 -9 -3 -14 -10 -11 -14 2 -4 -4 -15 -15 -25 -19 -17 -20 -17 -26 0 -5 12 -1 24 13 34 26 21 38 83 22 113 -15 28 -22 81 -10 74 15 -9 31 18 21 34 -8 13 -10 12 -10 -2 0 -10 -5 -18 -11 -18 -6 0 -9 6 -6 14 3 8 1 17 -6 20 -7 2 -4 5 6 5 15 1 16 4 7 21 -6 11 -15 18 -19 16 -8 -5 -61 93 -61 111 0 12 -130 222 -162 263 -15 19 -28 30 -28 23 0 -7 -7 -10 -17 -6 -14 4 -12 0 5 -17 19 -18 22 -29 17 -59 -5 -28 -2 -41 9 -51 10 -7 16 -8 16 -2 0 6 -4 14 -10 17 -15 9 -12 35 5 35 9 0 12 -6 9 -15 -4 -8 -1 -15 7 -15 7 0 10 -3 6 -6 -3 -3 7 -19 23 -34 27 -27 28 -28 7 -26 -12 1 -33 8 -47 15 -26 14 -89 80 -90 94 0 5 -6 5 -12 1 -9 -5 -8 -2 1 10 13 15 12 18 -7 23 -12 3 -20 9 -17 13 3 4 -2 13 -10 20 -11 9 -12 16 -5 25 8 10 6 18 -9 32 -28 27 -33 80 -6 69 9 -3 15 0 15 9 0 24 20 17 30 -10 5 -14 14 -25 20 -25 5 0 10 -6 10 -14 0 -7 7 -19 15 -26 13 -11 14 -9 2 16 -7 16 -21 44 -31 63 -10 18 -16 42 -13 52 3 11 -7 35 -22 56 -36 49 -221 224 -231 218 -4 -2 -18 7 -30 20 -35 37 -109 78 -155 86 l-40 6 45 2 c57 1 132 -16 145 -33 6 -7 25 -16 44 -19 l35 -7 -24 25 c-13 14 -31 25 -41 25 -9 0 -22 7 -29 15 -8 9 -25 14 -44 13 -17 -2 -47 -4 -66 -6z m25 -54 c7 -7 -2 -8 -25 -3 -19 4 -39 12 -45 17 -7 7 2 8 25 3 19 -4 40 -12 45 -17z m334 -265 c24 -24 59 -79 44 -70 -15 10 -76 87 -68 87 3 0 14 -8 24 -17z m352 -663 c5 0 9 -9 9 -20 0 -11 -5 -20 -11 -20 -6 0 -8 7 -5 16 5 12 2 15 -12 12 -12 -3 -19 0 -19 9 0 8 6 12 14 8 8 -3 19 -5 24 -5z"/> <path d="M1355 1550 c70 -11 274 -12 256 -1 -8 5 -80 9 -160 9 -109 0 -133 -2 -96 -8z"/> <path d="M1433 1505 c0 -16 13 -18 70 -9 55 10 45 24 -16 24 -41 0 -54 -4 -54 -15z"/> <path d="M1575 1512 c20 -21 580 -47 790 -37 115 5 344 29 385 40 8 2 -46 1 -120 -1 -218 -7 -384 -8 -732 -3 -180 2 -325 3 -323 1z"/> <path d="M840 1478 c0 -18 77 -168 96 -188 12 -12 14 -12 14 1 0 8 -5 20 -12 27 -9 9 -9 15 -1 23 15 15 38 -27 34 -60 -2 -15 1 -21 9 -16 6 4 9 13 6 20 -3 8 6 17 22 23 l27 9 -37 12 c-31 10 -37 17 -40 44 -2 18 -7 32 -13 33 -5 0 -22 6 -37 14 -52 25 -32 33 60 25 48 -5 99 -8 114 -7 19 1 29 -5 33 -18 5 -17 25 -29 25 -15 0 14 -25 55 -34 55 -46 1 -235 20 -248 25 -12 5 -18 2 -18 -7z"/> <path d="M1514 1445 c-14 -25 -25 -47 -23 -48 2 -1 41 -20 87 -42 46 -22 92 -48 103 -58 14 -13 19 -14 19 -4 0 15 156 55 168 43 6 -7 32 -76 32 -88 0 -4 -9 -12 -21 -18 -15 -9 -30 -7 -65 6 -27 10 -40 20 -34 24 7 5 1 10 -15 14 -16 4 -32 3 -37 -2 -10 -10 89 -64 119 -65 62 0 88 41 56 90 -15 24 -11 22 30 -14 26 -22 61 -58 78 -79 30 -38 30 -41 29 -139 -2 -77 2 -109 15 -140 10 -22 23 -56 30 -75 l12 -35 4 42 c3 23 2 40 -2 37 -3 -2 -11 7 -17 21 -9 20 -8 26 14 39 15 11 24 26 24 42 0 22 -2 24 -14 14 -11 -8 -20 -9 -33 -1 -17 10 -17 10 0 11 9 0 17 7 17 15 0 8 5 15 11 15 6 0 1 16 -11 36 -11 20 -19 42 -16 49 2 7 -22 41 -55 76 -40 44 -55 66 -46 71 8 5 5 8 -8 8 -27 1 -89 49 -124 96 -36 51 -57 68 -66 54 -3 -5 -15 -10 -26 -10 -10 0 -19 -4 -19 -10 0 -5 7 -10 15 -10 8 0 15 -4 15 -10 0 -5 8 -10 18 -11 14 0 14 -2 -3 -9 -27 -12 -43 -12 -25 0 13 8 12 10 -2 10 -10 0 -18 -4 -18 -10 0 -5 -5 -10 -11 -10 -7 0 -17 -7 -24 -16 -10 -15 -18 -13 -78 16 -77 37 -87 48 -62 67 11 7 15 13 10 13 -5 0 0 6 10 14 11 8 28 12 37 11 10 -2 16 0 13 6 -4 5 -24 9 -45 9 -36 0 -41 -4 -66 -45z m311 -95 c-3 -4 -22 -10 -44 -14 -22 -3 -46 -9 -55 -12 -9 -3 -16 -2 -16 4 0 6 12 15 28 20 31 11 93 12 87 2z m259 -365 c11 -8 17 -18 14 -21 -11 -10 -48 7 -48 22 0 18 10 17 34 -1z"/> <path d="M2760 1483 c-38 -7 -505 -34 -686 -40 -147 -4 -203 -3 -208 5 -4 7 -19 12 -34 12 -23 0 -18 -6 39 -44 87 -58 169 -150 213 -239 20 -40 36 -64 36 -54 0 10 4 16 9 12 20 -12 22 17 2 34 -18 16 -20 26 -15 59 5 31 2 45 -10 57 -14 14 -16 14 -16 1 0 -8 5 -18 10 -21 6 -3 10 -16 9 -28 -1 -20 -2 -20 -8 3 -4 14 -14 24 -23 24 -10 -1 -14 4 -11 12 2 7 -5 21 -16 31 -12 9 -21 23 -21 31 0 7 -4 11 -8 8 -5 -3 -24 10 -42 29 l-34 35 80 1 c43 1 95 2 114 4 19 1 94 6 165 9 72 3 187 13 255 21 69 8 172 20 230 26 58 6 107 13 110 15 4 5 -114 2 -140 -3z"/> <path d="M753 1449 c21 -11 44 -18 50 -16 15 5 -46 37 -70 37 -11 -1 -3 -9 20 -21z"/> <path d="M1140 1445 c8 -10 25 -15 44 -13 26 2 32 -1 34 -19 2 -13 8 -23 14 -23 5 0 8 7 4 15 -4 10 1 15 17 15 12 1 36 7 52 15 l30 13 -32 1 c-17 1 -43 -3 -57 -9 -19 -7 -25 -6 -23 2 1 8 -16 13 -47 16 -44 3 -48 2 -36 -13z"/> <path d="M342 1410 c-29 -47 -11 -102 58 -175 65 -68 100 -84 135 -61 24 16 27 16 60 -11 19 -15 35 -31 35 -35 0 -5 6 -8 13 -8 6 0 -3 14 -20 30 l-33 29 33 -5 c17 -3 46 -9 62 -13 37 -10 55 -4 55 16 0 10 6 13 15 9 25 -9 2 23 -26 37 -13 7 -25 20 -27 30 -5 24 15 21 23 -3 3 -11 11 -20 16 -20 11 0 -3 29 -33 73 -22 30 -58 54 -58 37 0 -5 6 -10 13 -10 6 0 17 -11 24 -25 6 -14 7 -25 2 -25 -5 0 -9 4 -9 10 0 5 -7 7 -16 3 -13 -5 -11 -10 11 -31 19 -17 25 -31 21 -46 -3 -11 -6 -24 -6 -28 0 -5 -5 -8 -10 -8 -7 0 -7 6 -1 18 12 23 -12 62 -38 62 -23 0 -48 -28 -53 -60 -4 -24 -5 -23 -23 13 -11 21 -22 32 -25 26 -4 -6 -16 4 -28 25 -24 41 -26 40 53 21 56 -13 61 -13 80 5 19 19 19 20 -8 48 -15 15 -27 35 -27 44 0 16 -12 23 -62 38 -18 6 -28 4 -31 -5 -4 -8 -20 -11 -46 -9 -28 2 -39 -1 -35 -8 4 -6 24 -8 53 -3 62 9 91 9 101 -2 17 -17 21 -58 7 -77 -13 -18 -14 -17 -9 13 5 37 -12 61 -43 61 -26 0 -43 -18 -54 -56 l-7 -28 -23 37 c-24 40 -76 87 -94 87 -7 0 -18 -9 -25 -20z m48 -52 c0 -6 3 -9 6 -5 4 3 12 1 19 -6 7 -7 24 -22 39 -34 14 -13 26 -30 26 -38 0 -9 7 -27 16 -40 15 -23 15 -24 -12 -31 -19 -5 -30 -2 -39 9 -7 9 -15 14 -18 10 -4 -3 -7 -1 -7 6 0 7 -9 25 -20 41 -23 32 -37 100 -21 100 6 0 11 -5 11 -12z"/> <path d="M1124 1360 c3 -17 2 -29 -3 -26 -4 3 -17 -1 -27 -9 -17 -13 -18 -14 -1 -15 9 0 17 4 17 10 0 6 9 6 25 0 20 -7 27 -6 31 4 11 29 -1 59 -25 63 -21 3 -23 1 -17 -27z"/> <path d="M1362 1343 c-45 -25 -80 -48 -78 -50 2 -3 23 7 45 22 23 14 65 36 94 50 29 13 45 24 37 24 -8 1 -52 -20 -98 -46z"/> <path d="M1025 1271 c-36 -17 -54 -30 -47 -35 7 -4 12 -2 13 6 0 7 5 2 11 -12 l11 -25 10 27 c6 14 21 31 35 37 20 10 23 9 19 -3 -9 -23 6 -26 26 -6 18 18 18 19 0 28 -14 8 -33 4 -78 -17z"/> <path d="M1154 1270 c-11 -4 -36 -37 -55 -73 -28 -56 -36 -64 -51 -56 -21 11 -23 1 -6 -36 13 -28 36 -34 34 -7 -1 11 6 16 18 15 15 -1 17 4 13 26 -3 15 -1 33 4 41 8 13 12 12 25 -5 16 -20 16 -20 11 2 -7 29 19 63 48 63 29 0 31 -9 27 -113 -3 -54 -7 -76 -13 -66 -8 12 -12 10 -27 -7 -9 -12 -28 -27 -41 -34 -25 -13 -26 -12 -52 33 -6 10 -13 16 -16 14 -6 -7 19 -77 28 -77 4 0 9 -10 12 -21 l6 -21 28 20 c15 11 37 30 48 43 13 15 7 12 -19 -8 -22 -18 -44 -29 -49 -26 -5 3 3 11 19 18 16 6 35 19 43 28 7 9 17 14 23 11 5 -3 16 0 24 7 11 9 18 9 32 -4 9 -8 53 -34 97 -57 53 -27 82 -49 87 -63 6 -22 6 -22 7 1 1 13 5 21 10 17 6 -3 15 4 21 15 10 18 9 19 -13 9 -20 -9 -34 -6 -88 21 -35 18 -81 44 -102 57 l-40 25 5 87 c3 48 11 97 17 109 11 21 10 22 -41 21 -29 0 -62 -4 -74 -9z"/> <path d="M1686 1239 c-7 -35 -8 -135 -2 -128 6 6 19 159 13 159 -2 0 -7 -14 -11 -31z"/> <path d="M304 1215 c-18 -28 -13 -55 17 -73 16 -10 19 -10 13 -1 -5 9 -2 10 10 6 10 -4 35 -10 57 -13 34 -6 39 -4 39 12 1 16 4 15 25 -9 30 -34 33 -52 6 -37 -31 16 -59 12 -77 -12 l-16 -23 7 29 c6 27 5 28 -11 15 -10 -8 -15 -9 -11 -2 4 6 3 14 -3 18 -15 9 -12 -7 10 -50 17 -33 27 -41 58 -46 20 -3 44 -9 52 -13 9 -3 24 0 34 7 18 13 18 15 3 38 -10 13 -17 31 -17 39 0 25 -57 75 -72 63 -23 -17 -60 -13 -65 8 -6 22 -19 25 -27 7 -3 -7 -3 -3 0 10 3 14 1 22 -8 22 -10 0 -9 3 2 10 20 12 52 -22 43 -46 -4 -12 -3 -15 5 -10 16 9 15 49 0 64 -20 20 -56 14 -74 -13z m206 -165 c0 -9 -39 -25 -45 -18 -2 2 -2 14 2 26 4 18 9 20 24 11 10 -5 19 -14 19 -19z"/> <path d="M1043 1210 c-9 -24 -8 -32 5 -42 13 -11 15 -10 9 5 -4 11 0 23 13 34 15 13 16 19 7 25 -19 12 -22 10 -34 -22z"/> <path d="M742 1151 c-10 -6 -7 -12 12 -24 31 -21 36 -21 36 -1 0 8 -4 12 -10 9 -6 -3 -7 1 -4 9 7 17 -12 21 -34 7z"/> <path d="M542 1143 c5 -3 1 -14 -7 -26 -21 -31 -20 -35 29 -81 37 -34 52 -59 86 -150 60 -159 75 -183 162 -266 44 -41 86 -86 94 -102 8 -15 25 -39 39 -54 14 -15 25 -36 25 -47 0 -15 3 -18 11 -10 7 7 7 23 -2 54 -15 49 -39 75 -51 56 -4 -7 -8 -7 -8 -2 0 6 5 17 10 25 6 10 10 11 10 3 0 -7 5 -13 10 -13 17 0 11 102 -10 186 -20 79 -49 131 -69 126 -6 -1 -11 4 -11 12 0 15 -190 179 -198 171 -8 -7 32 -50 105 -114 40 -35 70 -67 67 -72 -3 -5 -1 -9 5 -9 5 0 22 -5 38 -11 19 -7 24 -12 14 -18 -10 -6 -9 -12 4 -25 10 -10 18 -36 20 -65 1 -26 8 -58 15 -71 10 -18 9 -24 0 -30 -7 -5 -11 -14 -8 -22 3 -7 0 -18 -7 -25 -9 -8 -15 -6 -26 9 -54 77 -72 96 -83 92 -7 -3 -18 1 -23 8 -12 14 -68 125 -131 258 -22 47 -54 100 -71 118 -17 18 -31 37 -31 41 0 16 55 6 71 -13 13 -16 17 -17 21 -4 8 19 -37 68 -62 68 -10 0 -24 2 -32 3 -7 2 -10 2 -6 0z"/> <path d="M670 1101 c-5 -11 -10 -27 -10 -37 0 -16 2 -16 20 1 15 13 24 15 31 8 8 -8 5 -13 -10 -18 -31 -9 -26 -25 8 -25 20 0 35 8 45 22 20 28 20 33 0 52 -22 23 -71 20 -84 -3z"/> <path d="M2205 1088 c-2 -13 -6 -43 -8 -67 -4 -40 -21 -64 -44 -61 -9 2 -22 -32 -17 -42 3 -4 18 -2 34 4 17 5 27 14 24 19 -3 6 -1 16 5 23 14 17 30 135 20 142 -5 3 -11 -5 -14 -18z"/> <path d="M783 1075 c3 -18 -2 -30 -17 -40 -20 -15 -20 -15 -1 -17 11 0 30 0 41 1 14 1 23 -6 27 -19 3 -11 13 -20 22 -20 14 0 14 4 -4 29 -12 16 -21 33 -21 38 -1 11 -36 53 -45 53 -4 0 -5 -11 -2 -25z"/> <path d="M2150 1015 c0 -19 4 -35 10 -35 5 0 9 16 7 35 -3 45 -17 45 -17 0z"/> <path d="M334 1018 c-4 -6 -3 -8 4 -4 5 3 12 2 14 -3 1 -4 14 -11 28 -15 l25 -7 -24 20 c-27 24 -37 26 -47 9z"/> <path d="M511 997 c-6 -8 -14 -28 -17 -44 -5 -25 -2 -32 14 -37 10 -4 26 -4 35 0 27 10 53 -13 66 -58 7 -24 33 -73 57 -111 24 -37 46 -79 48 -93 3 -15 8 -29 12 -33 4 -3 4 2 1 12 -4 11 -1 17 10 17 12 0 10 8 -11 35 -31 40 -100 177 -109 217 -5 20 -12 25 -26 21 -18 -5 -19 -3 -9 25 9 24 9 34 -1 46 -16 20 -55 21 -70 3z"/> <path d="M750 1003 c0 -5 23 -23 51 -42 58 -40 91 -80 131 -160 22 -43 27 -49 23 -24 -6 32 8 54 19 28 3 -8 12 -15 21 -15 13 0 14 -4 4 -22 -9 -19 -9 -21 1 -11 10 9 18 9 34 1 20 -11 20 -10 6 8 -35 46 -72 75 -84 65 -9 -8 -17 -1 -30 26 -12 25 -14 38 -6 43 6 4 2 13 -12 25 -13 11 -17 13 -10 5 23 -26 12 -32 -17 -8 -27 21 -44 47 -22 33 5 -3 13 0 17 6 5 9 0 10 -16 6 -15 -4 -36 3 -61 19 -41 26 -49 28 -49 17z"/> <path d="M363 963 c9 -3 17 -9 17 -14 0 -6 4 -8 8 -5 4 2 14 0 22 -5 13 -8 12 -11 -3 -23 -12 -9 -14 -16 -7 -21 5 -3 7 -11 4 -17 -5 -7 0 -9 15 -5 15 4 29 -2 46 -21 13 -14 22 -29 19 -34 -9 -14 47 -4 59 11 8 10 9 13 1 8 -13 -7 -76 15 -75 26 3 22 -1 27 -21 28 -13 0 -17 3 -10 6 6 2 10 9 7 14 -4 5 2 6 12 2 16 -6 17 -5 3 13 -26 33 -43 42 -80 41 -19 0 -27 -2 -17 -4z"/> <path d="M1945 949 c-11 -5 -33 -13 -49 -19 -60 -22 -17 -18 54 5 53 16 66 23 45 24 -16 0 -39 -4 -50 -10z"/> <path d="M540 875 c63 -71 88 -89 51 -36 -12 16 -21 35 -21 42 0 7 -3 9 -6 6 -4 -3 -16 -1 -28 5 -19 10 -18 8 4 -17z"/> <path d="M2135 890 c-2 -3 -7 -34 -11 -68 -3 -34 -11 -62 -15 -62 -5 0 -9 -5 -9 -11 0 -5 5 -7 10 -4 19 12 10 -9 -16 -36 -25 -26 -25 -28 -7 -37 17 -9 21 -5 32 34 7 24 24 53 37 63 25 20 22 31 -8 31 -29 0 -21 16 15 28 17 5 24 10 15 11 -19 1 -22 9 -10 28 5 8 40 13 97 14 50 1 101 6 115 9 14 4 -35 7 -108 6 -74 0 -135 -3 -137 -6z"/> <path d="M1480 852 c0 -11 -4 -24 -10 -27 -13 -8 -13 -25 1 -25 5 0 7 5 4 10 -3 6 1 10 9 10 10 0 13 7 11 21 -6 30 -15 37 -15 11z"/> <path d="M257 854 c-9 -9 1 -24 16 -24 7 0 6 4 -3 10 -12 8 -11 10 8 10 15 0 22 -6 22 -20 0 -11 5 -20 11 -20 6 0 17 -7 26 -15 8 -8 18 -13 23 -10 5 3 -3 17 -18 32 -25 25 -25 27 -7 34 14 5 6 8 -26 8 -25 1 -49 -2 -52 -5z"/> <path d="M364 849 c-3 -6 1 -18 10 -27 11 -11 16 -12 16 -4 0 7 5 10 10 7 6 -3 10 -1 10 5 0 7 6 8 19 0 26 -14 31 -13 25 5 -4 8 -10 13 -14 10 -5 -3 -11 -1 -15 5 -8 13 -52 13 -61 -1z"/> <path d="M2066 812 c-3 -6 -16 -8 -29 -6 -13 2 -16 1 -7 -3 8 -3 20 -13 26 -21 10 -14 12 -13 19 7 7 24 1 39 -9 23z"/> <path d="M445 791 c-3 -6 2 -11 12 -12 10 0 13 -3 6 -6 -10 -3 -9 -8 3 -20 13 -13 19 -14 40 -3 13 8 24 17 24 22 0 5 6 3 14 -4 8 -7 12 -16 10 -20 -2 -4 0 -9 5 -12 13 -8 20 16 10 39 -4 12 -8 14 -8 6 -1 -12 -4 -12 -13 -3 -18 18 -35 15 -41 -8 -3 -11 -10 -20 -16 -20 -9 0 -9 5 -1 20 6 12 7 20 1 20 -5 0 -16 3 -24 6 -8 3 -18 1 -22 -5z"/> <path d="M1485 784 c-6 -2 -9 -24 -7 -48 3 -36 0 -46 -19 -59 -12 -9 -25 -14 -29 -12 -4 2 -7 -2 -7 -10 0 -15 7 -13 52 21 21 16 39 21 60 18 28 -5 29 -4 9 8 -42 26 -52 42 -43 65 8 22 5 26 -16 17z"/> <path d="M2007 761 c-3 -12 1 -22 10 -26 12 -4 14 0 10 15 -5 21 7 28 16 10 3 -6 4 -5 3 2 -4 21 -33 20 -39 -1z"/> <path d="M2065 746 c-11 -12 -55 -93 -55 -101 0 -13 18 -3 24 13 3 9 9 24 14 32 32 55 40 83 17 56z"/> <path d="M593 743 c4 -3 3 -11 -2 -17 -6 -7 -1 -11 16 -12 31 -2 40 -11 25 -26 -7 -7 -16 -8 -25 -2 -7 5 -4 1 6 -8 12 -11 14 -18 6 -18 -7 0 -10 -3 -7 -6 4 -3 15 -1 27 5 18 10 20 7 27 -35 4 -30 3 -49 -4 -53 -6 -4 -7 -12 -3 -20 6 -9 10 -6 15 11 5 19 8 20 15 8 5 -8 8 -30 7 -49 -1 -29 -5 -34 -28 -37 -30 -3 -35 5 -15 25 10 11 9 13 -6 7 -10 -3 -24 -6 -30 -6 -6 0 0 -11 13 -25 18 -19 29 -23 49 -18 14 3 28 9 31 12 3 4 18 8 34 9 23 2 26 -1 17 -12 -9 -11 -9 -15 1 -19 9 -4 7 -6 -4 -6 -9 -1 -19 5 -21 12 -3 6 -6 0 -6 -15 -1 -27 -16 -39 -23 -18 -1 5 -8 -2 -15 -16 -10 -21 -9 -24 5 -22 9 2 20 8 24 13 5 6 8 5 8 -3 0 -9 16 -12 55 -11 60 3 73 10 51 28 -10 8 -16 9 -21 1 -3 -6 -11 -8 -16 -5 -12 8 -11 35 2 35 5 0 7 -4 4 -10 -3 -5 -1 -10 5 -10 7 0 10 7 6 15 -3 8 -1 15 4 15 5 0 8 9 7 20 -1 18 -8 20 -59 20 -84 0 -76 36 9 44 12 1 21 -3 20 -8 -1 -6 4 -11 11 -12 6 -1 17 -2 22 -3 6 0 10 -7 10 -15 0 -10 7 -12 22 -8 16 4 18 7 8 10 -20 7 -44 32 -37 39 10 9 -12 43 -28 43 -8 0 -15 7 -15 15 0 8 -9 15 -19 15 -26 0 -52 -27 -45 -45 4 -9 0 -15 -10 -15 -10 0 -16 9 -16 25 0 48 -72 165 -102 165 -6 0 -8 -3 -5 -7z"/> <path d="M1380 736 c-6 -8 -17 -13 -25 -10 -7 3 -16 1 -19 -4 -7 -11 22 -25 35 -16 10 6 32 44 26 44 -3 0 -10 -6 -17 -14z"/> <path d="M413 733 c-7 -2 -13 -11 -13 -18 0 -7 -3 -15 -7 -18 -5 -2 -2 -2 6 0 8 2 18 -2 23 -9 6 -8 7 -5 3 10 -4 15 -2 22 5 20 7 -2 15 3 17 10 5 12 -11 15 -34 5z"/> <path d="M982 728 c-16 -16 -15 -53 2 -67 30 -25 90 35 65 65 -14 17 -51 18 -67 2z"/> <path d="M1972 718 c-7 -7 -12 -18 -12 -26 0 -7 -7 -20 -16 -29 -8 -9 -13 -22 -10 -29 3 -8 0 -11 -8 -8 -8 3 -17 1 -21 -5 -3 -6 -1 -11 4 -11 6 0 14 -1 18 -2 4 -2 16 15 28 37 12 23 28 39 37 39 17 -2 18 20 2 36 -7 7 -14 6 -22 -2z"/> <path d="M469 711 c12 -7 9 -14 -15 -34 -16 -14 -25 -29 -21 -34 5 -4 13 0 18 10 11 19 41 22 71 6 12 -7 18 -7 14 -1 -3 6 0 13 6 15 7 3 2 6 -12 7 -25 1 -25 1 5 15 17 7 28 14 25 15 -3 1 -27 3 -55 6 -34 4 -45 2 -36 -5z"/> <path d="M1053 685 l-22 -35 34 0 c36 0 44 15 29 54 -9 23 -16 19 -41 -19z"/> <path d="M373 649 c-10 -25 -9 -31 3 -36 20 -7 31 4 17 18 -17 17 -4 43 13 28 9 -7 14 -8 14 -1 0 8 -22 22 -34 22 -1 0 -7 -14 -13 -31z"/> <path d="M1401 667 c0 -11 -6 -15 -12 -11 -7 4 -9 0 -5 -14 5 -14 1 -24 -11 -31 -10 -6 -13 -11 -7 -11 25 0 46 26 41 55 -2 17 -5 22 -6 12z"/> <path d="M2056 652 c-8 -24 -60 -82 -73 -82 -6 0 -13 -7 -17 -15 -3 -8 -10 -15 -16 -15 -6 0 -8 5 -5 10 3 6 2 10 -3 10 -6 0 -12 -6 -15 -13 -7 -18 30 -19 63 -2 15 8 31 11 35 7 5 -4 5 -2 2 4 -3 6 3 21 14 32 10 12 22 35 25 52 7 33 -1 41 -10 12z"/> <path d="M1087 633 c-36 -23 -65 -23 -51 -1 5 7 2 8 -6 3 -10 -6 -9 -12 8 -25 16 -13 18 -20 9 -29 -9 -9 -8 -11 6 -6 9 4 17 11 17 15 0 16 31 40 51 40 28 0 59 -35 52 -59 -9 -34 -18 -32 -18 2 0 30 -2 32 -34 32 -19 0 -36 -5 -38 -12 -3 -7 4 -9 19 -5 22 5 22 5 5 -12 -10 -10 -24 -16 -32 -13 -7 3 -19 -1 -25 -9 -7 -8 -20 -14 -30 -14 -26 0 -43 -26 -36 -55 5 -21 12 -25 42 -25 19 0 33 4 30 9 -4 5 -2 20 3 34 6 16 6 28 -1 35 -6 6 -6 12 0 16 5 3 15 -1 22 -9 7 -8 26 -15 42 -15 27 0 29 -2 17 -17 -12 -17 -12 -17 5 -2 10 9 28 14 42 11 31 -6 30 -15 -3 -30 -16 -6 -18 -9 -7 -6 12 2 34 0 50 -6 24 -8 26 -8 14 2 -21 18 -50 73 -56 105 -11 61 -47 78 -97 46z"/> <path d="M466 636 c4 -10 -2 -12 -20 -9 -16 3 -26 1 -26 -6 0 -11 24 -16 45 -11 6 2 20 3 33 3 24 1 31 17 7 17 -8 0 -15 5 -15 10 0 6 -7 10 -15 10 -8 0 -12 -6 -9 -14z"/> <path d="M1464 626 c-6 -6 -8 -20 -4 -30 5 -15 8 -15 17 -4 14 18 2 51 -13 34z"/> <path d="M1409 592 c-4 -39 -1 -62 9 -62 10 0 9 57 -1 67 -4 3 -8 1 -8 -5z"/> <path d="M391 560 c9 -18 9 -25 0 -28 -6 -2 -11 -9 -11 -15 0 -8 3 -8 11 0 6 6 25 7 52 2 81 -16 94 -5 15 12 -24 6 -51 20 -61 32 l-18 22 12 -25z"/> <path d="M1450 531 c14 -27 13 -34 -5 -27 -8 3 -15 4 -15 2 0 -3 -3 -13 -6 -23 -6 -15 -4 -16 7 -5 7 6 21 12 31 12 10 0 18 2 18 5 0 13 -24 55 -32 55 -5 0 -4 -9 2 -19z"/> <path d="M1855 526 c-10 -7 -26 -11 -35 -9 -14 4 -17 0 -13 -19 3 -17 11 -24 26 -24 12 1 21 -4 20 -11 -2 -8 8 -6 27 5 16 9 25 19 19 21 -6 2 -15 -1 -21 -7 -8 -8 -15 -6 -26 4 -11 12 -12 18 -3 27 9 9 14 8 21 -3 9 -13 11 -13 20 0 21 32 0 42 -35 16z"/> <path d="M530 510 c0 -24 25 -59 45 -62 16 -4 22 -1 18 9 -3 7 -9 13 -14 13 -5 0 -14 11 -19 25 -9 24 -30 35 -30 15z"/> <path d="M1070 511 c0 -5 -3 -17 -7 -27 -5 -13 -3 -16 10 -11 17 6 25 -7 10 -16 -5 -2 -3 -3 3 -1 7 1 21 -4 32 -12 18 -12 20 -11 25 5 3 14 1 18 -9 14 -8 -3 -14 0 -14 7 0 6 -5 8 -10 5 -6 -3 -14 5 -20 19 -9 26 -20 34 -20 17z"/> <path d="M423 474 c0 -8 5 -13 11 -11 6 2 21 -2 34 -9 13 -6 32 -10 42 -7 16 4 17 8 7 24 -7 11 -14 14 -18 8 -4 -7 -16 -8 -30 -3 -39 13 -46 12 -46 -2z"/> <path d="M865 481 c-3 -5 6 -18 20 -29 14 -11 25 -25 25 -31 0 -17 20 -13 27 5 4 10 -4 25 -20 40 -28 26 -42 30 -52 15z"/> <path d="M1746 445 c-29 -31 -77 -51 -61 -25 3 6 -1 7 -9 4 -9 -3 -13 -10 -10 -15 3 -5 -2 -9 -10 -9 -9 0 -16 6 -16 13 0 8 -4 7 -10 -3 -15 -24 -12 -31 13 -25 101 22 123 28 132 38 7 7 4 8 -7 4 -10 -4 -18 -2 -18 3 0 6 6 10 13 10 7 0 18 9 25 20 21 34 -7 24 -42 -15z"/> <path d="M1162 458 c-17 -17 -15 -43 3 -58 13 -11 23 -10 56 0 47 16 54 24 40 47 -8 14 -11 15 -11 3 0 -12 -3 -11 -11 3 -12 20 -59 23 -77 5z m39 -26 c-19 -3 -21 -6 -10 -13 11 -7 9 -9 -8 -9 -15 0 -21 5 -17 14 6 16 34 26 49 17 6 -3 -1 -8 -14 -9z"/> <path d="M847 451 c-18 -6 -17 -8 3 -31 15 -17 23 -21 26 -12 3 6 10 10 15 6 5 -3 9 0 9 6 0 7 -9 14 -20 17 -11 3 -17 9 -14 14 6 10 6 10 -19 0z"/> <path d="M420 430 c0 -5 6 -7 14 -4 18 7 16 -17 -3 -40 -16 -20 -3 -20 22 -2 15 12 16 18 7 35 -11 21 -40 29 -40 11z"/> <path d="M609 435 c-11 -10 2 -45 17 -45 8 0 14 -4 14 -9 0 -13 -27 -21 -45 -15 -8 4 -16 1 -16 -5 -4 -32 -6 -36 -17 -33 -7 1 -15 -5 -18 -13 -3 -8 -10 -12 -15 -9 -5 2 -18 0 -29 -6 -11 -6 -20 -8 -20 -5 0 10 28 35 39 35 6 0 11 4 11 8 0 14 -29 10 -34 -5 -7 -17 -31 -17 -46 2 -7 8 -18 15 -24 15 -6 0 -4 -5 4 -10 11 -7 6 -9 -18 -6 -19 1 -38 9 -43 17 -5 8 -9 10 -9 4 0 -5 -5 -3 -10 5 -7 11 -10 7 -10 -18 0 -20 -4 -31 -10 -27 -6 4 -9 1 -8 -6 2 -7 -7 -13 -19 -13 -13 -1 -23 -5 -22 -11 0 -5 10 -9 23 -7 14 2 26 -3 29 -12 8 -21 65 -2 93 32 12 15 26 22 32 18 17 -10 15 -26 -2 -26 -20 0 -27 -13 -16 -30 7 -12 16 -11 53 8 25 12 52 19 61 16 19 -7 22 11 4 20 -7 4 -2 4 11 2 16 -3 34 3 53 20 16 13 24 24 16 25 -7 0 -3 4 10 9 23 10 31 40 10 40 -9 0 -8 3 2 10 8 5 11 12 7 16 -4 4 -13 2 -19 -4 -16 -16 -26 -15 -30 4 -2 9 -6 13 -9 9z m-239 -109 c0 -8 7 -17 16 -20 8 -3 12 -11 8 -17 -5 -8 -13 -4 -25 12 -21 27 -24 39 -9 39 6 0 10 -6 10 -14z"/> <path d="M1062 423 c-25 -5 -44 -34 -40 -61 2 -9 -3 -16 -9 -14 -20 3 -15 -32 7 -56 12 -12 18 -22 15 -22 -3 0 6 -12 20 -27 14 -15 25 -35 26 -43 0 -10 3 -9 9 5 7 17 9 17 9 3 1 -10 8 -18 16 -18 19 0 19 16 0 24 -9 3 -12 12 -8 23 5 16 4 16 -9 -1 -14 -18 -16 -16 -36 21 -16 31 -18 43 -9 53 9 10 9 11 0 6 -7 -4 -13 -2 -13 4 0 7 -7 9 -16 6 -14 -5 -15 -4 -5 8 6 8 21 12 31 9 16 -4 20 0 20 21 0 14 5 26 11 26 6 0 9 -7 5 -15 -3 -8 -2 -14 2 -14 20 3 23 -3 11 -18 -11 -15 -11 -16 0 -6 7 6 20 9 29 6 11 -5 13 -3 7 8 -5 8 -9 23 -10 34 0 13 -8 21 -24 23 -19 3 -21 6 -10 13 14 9 10 9 -29 2z"/> <path d="M1491 416 c-9 -10 -9 -16 -1 -21 8 -5 5 -12 -7 -21 -15 -13 -13 -13 19 0 37 14 78 12 78 -5 0 -9 -15 -13 -33 -10 -5 1 -6 -3 -2 -9 3 -5 13 -10 21 -10 13 0 16 5 18 39 1 8 10 17 21 21 19 7 19 8 -5 18 -14 5 -29 6 -34 2 -5 -5 -15 -6 -22 -3 -8 3 -14 0 -14 -7 0 -6 -5 -8 -10 -5 -6 4 -8 11 -5 16 10 15 -11 10 -24 -5z"/> <path d="M1270 380 c0 -5 -7 -6 -17 -3 -11 4 -14 3 -9 -5 4 -7 14 -12 21 -12 8 0 21 -12 28 -26 20 -38 30 -13 11 25 -15 30 -34 42 -34 21z"/> <path d="M926 371 c-23 -5 -29 -12 -32 -36 -3 -28 0 -31 26 -33 34 -3 46 11 25 28 -8 7 -15 17 -15 23 0 5 8 2 19 -7 18 -16 19 -16 19 9 0 14 -3 24 -7 24 -3 -1 -19 -4 -35 -8z"/> <path d="M1657 350 c-19 -16 -41 -30 -50 -30 -8 0 -18 -7 -21 -16 -5 -12 -2 -15 11 -10 9 4 20 2 23 -5 5 -7 13 1 21 19 9 20 28 36 58 50 41 18 43 20 19 21 -17 1 -40 -10 -61 -29z"/> <path d="M739 359 c-18 -11 3 -17 53 -15 26 1 45 -2 42 -6 -3 -4 0 -8 5 -8 22 0 10 30 -11 31 -13 0 -36 2 -51 3 -15 1 -33 -1 -38 -5z"/> <path d="M1159 343 c-1 -5 -1 -12 0 -16 1 -5 -2 -6 -7 -3 -13 8 -67 -9 -64 -20 1 -5 7 -9 12 -9 6 0 14 -4 18 -10 4 -5 16 -10 28 -11 15 -1 21 5 21 20 1 41 3 47 15 40 7 -4 8 -3 4 4 -8 13 -25 16 -27 5z"/> <path d="M1702 340 c-49 -11 -51 -20 -4 -20 31 0 42 4 42 15 0 8 -1 15 -2 14 -2 -1 -18 -5 -36 -9z"/> <path d="M702 328 c-15 -15 -16 -32 -1 -23 9 6 27 -33 20 -44 -2 -2 3 -8 11 -13 9 -6 6 -7 -9 -3 -14 4 -23 2 -23 -4 0 -6 14 -11 31 -11 16 0 28 -4 24 -9 -3 -5 -1 -12 5 -16 14 -9 13 18 -2 33 -7 7 -8 12 -2 12 5 0 3 4 -5 9 -8 5 -10 14 -6 21 6 10 10 9 17 -4 12 -21 26 -20 73 5 32 17 34 20 13 15 -25 -6 -39 6 -20 17 4 2 1 2 -5 1 -7 -2 -16 4 -21 13 -11 18 -52 9 -52 -11 0 -7 -7 -13 -15 -13 -10 0 -13 6 -9 19 6 21 -6 24 -24 6z"/> <path d="M2184 313 c4 -9 1 -13 -10 -13 -13 0 -14 -3 -5 -13 14 -18 4 -27 -31 -27 -33 0 -38 -24 -9 -40 29 -15 39 -12 16 6 -19 15 -19 15 8 9 33 -9 57 8 57 40 0 12 -8 29 -17 36 -11 10 -14 10 -9 2z"/> <path d="M1875 297 c-22 -6 -44 -17 -48 -24 -4 -7 -16 -13 -27 -13 -26 0 -50 -10 -50 -22 0 -5 10 -6 23 -2 19 6 33 9 69 13 4 1 4 8 1 18 -4 11 -3 14 5 9 11 -6 72 19 72 29 0 3 -1 4 -2 4 -2 -1 -21 -6 -43 -12z"/> <path d="M990 282 c0 -7 -4 -10 -10 -7 -14 9 -13 -8 2 -23 6 -6 9 -15 5 -18 -3 -4 -12 5 -18 20 -13 27 -24 33 -34 16 -3 -5 -12 -7 -20 -3 -8 3 -15 0 -15 -7 0 -7 8 -10 20 -7 14 4 26 -3 40 -24 l21 -28 -31 2 c-27 2 -34 9 -31 29 0 5 -3 7 -8 5 -5 -1 -17 7 -26 18 -9 11 -14 14 -10 8 4 -8 0 -13 -9 -13 -10 0 -13 6 -9 16 5 14 3 13 -15 -2 -26 -22 -27 -25 -8 -18 8 3 19 -3 25 -15 15 -27 14 -31 -4 -25 -8 4 -15 2 -15 -4 0 -11 30 -21 48 -15 6 3 12 9 12 14 0 6 -5 7 -12 3 -7 -4 -8 -3 -4 5 6 9 11 9 22 0 18 -15 18 -34 -1 -52 -13 -13 -13 -16 0 -27 8 -7 15 -20 15 -28 0 -13 2 -14 13 -3 9 10 9 15 0 18 -8 3 -9 12 -4 26 5 12 7 30 6 40 -2 9 0 17 4 17 13 0 29 -22 25 -35 -7 -18 33 -26 47 -9 11 14 10 15 -13 18 -20 2 -17 43 3 65 15 16 16 21 4 37 -9 12 -14 14 -15 6z"/> <path d="M2290 265 c0 -11 -9 -26 -20 -33 -27 -16 -25 -32 3 -32 31 0 53 48 32 69 -13 14 -15 13 -15 -4z"/> <path d="M601 256 c-16 -19 -6 -36 19 -36 10 0 27 -13 36 -30 13 -21 20 -26 26 -17 6 9 8 9 8 0 0 -19 26 -5 38 21 9 21 8 22 -15 18 -17 -3 -29 1 -35 12 -6 11 -16 15 -29 11 -14 -5 -21 0 -27 15 -7 19 -10 20 -21 6z"/> <path d="M2010 256 c-13 -13 -13 -46 -1 -46 5 0 7 9 4 20 -4 15 0 20 16 20 12 0 21 -6 21 -15 0 -8 5 -15 10 -15 6 0 10 11 10 24 0 19 -5 24 -25 22 -14 0 -30 -5 -35 -10z"/> <path d="M1130 256 c0 -3 4 -16 10 -30 8 -23 12 -25 34 -15 19 9 22 14 13 24 -7 7 -18 10 -24 8 -7 -3 -13 0 -13 6 0 6 -4 11 -10 11 -5 0 -10 -2 -10 -4z"/> <path d="M1500 234 c-17 -15 -28 -29 -25 -32 2 -3 13 2 22 10 10 9 34 23 53 31 34 15 34 15 8 16 -15 1 -40 -10 -58 -25z"/> <path d="M798 234 c-4 -54 -2 -102 4 -98 5 3 8 1 8 -5 0 -5 -6 -11 -12 -14 -15 -5 29 -46 49 -47 6 0 13 -11 15 -24 3 -22 4 -21 21 12 15 30 16 33 3 22 -14 -11 -16 -10 -10 4 3 9 2 16 -4 16 -6 0 -13 -6 -15 -12 -3 -8 -6 -6 -6 5 -1 11 6 17 19 17 11 0 20 5 20 10 0 12 -2 12 -35 0 -14 -5 -23 -14 -20 -20 3 -6 -1 -7 -9 -4 -12 4 -13 11 -6 24 5 10 13 20 17 22 5 3 2 3 -5 1 -8 -1 -12 3 -9 9 2 7 -3 18 -12 25 -9 7 -11 13 -4 13 6 0 10 11 8 25 -3 32 -14 45 -17 19z"/> <path d="M1656 236 c4 -11 0 -22 -12 -31 -21 -15 -15 -29 9 -20 21 9 28 42 11 56 -12 10 -13 9 -8 -5z"/> <path d="M330 211 c0 -11 5 -21 11 -21 5 0 7 5 4 10 -8 13 1 13 28 -2 21 -11 21 -11 2 -19 -11 -4 -37 -8 -58 -8 -21 -1 -36 -5 -32 -10 3 -5 -3 -11 -12 -14 -12 -2 -7 -7 17 -14 19 -5 39 -8 45 -4 5 3 -1 8 -15 12 -30 8 -27 10 23 15 21 1 45 8 52 14 16 13 49 0 58 -23 6 -16 53 -15 49 2 -4 19 77 19 90 -1 6 -10 8 -10 8 0 0 6 5 12 11 12 5 0 7 -4 4 -10 -4 -6 1 -7 10 -3 14 5 11 10 -14 25 -17 11 -29 23 -26 28 3 4 -4 10 -14 13 -13 3 -18 0 -15 -8 3 -7 -2 -15 -10 -18 -9 -4 -17 1 -21 14 -6 18 -15 20 -73 18 -37 -1 -79 2 -94 6 -24 6 -28 4 -28 -14z m177 -23 c-2 -7 -10 -12 -17 -10 -7 2 -26 4 -42 5 -46 3 -32 17 18 17 32 0 44 -4 41 -12z"/> <path d="M1017 223 c-17 -16 -5 -33 24 -33 20 0 29 4 26 13 -2 6 -10 11 -17 9 -7 -2 -16 2 -20 8 -3 5 -9 7 -13 3z"/> <path d="M220 201 c-7 -11 -17 -18 -21 -15 -5 2 -13 -5 -19 -16 -11 -20 3 -30 15 -10 3 6 18 10 33 10 21 0 24 2 12 10 -13 9 -12 12 4 25 15 11 16 15 5 15 -8 0 -21 -9 -29 -19z"/> <path d="M1715 178 c-11 -11 -29 -24 -40 -28 -15 -7 -16 -9 -4 -9 9 -1 22 6 29 14 7 8 18 15 25 15 7 0 15 7 19 15 8 21 -5 18 -29 -7z"/> <path d="M2038 190 c-9 -6 -34 -8 -54 -6 -44 6 -137 -12 -129 -24 6 -10 -26 -22 -46 -18 -7 2 -15 -5 -17 -15 -3 -16 0 -18 20 -12 12 4 30 14 39 21 8 8 21 14 27 14 7 0 12 5 12 10 0 6 11 10 25 10 14 0 25 -5 25 -11 0 -12 88 -2 107 13 6 5 24 13 40 18 l28 8 -30 1 c-16 0 -38 -4 -47 -9z"/> <path d="M2156 179 c-50 -12 -62 -23 -18 -17 17 2 32 1 32 -3 0 -4 16 -5 35 -2 27 4 39 2 49 -12 12 -17 13 -16 18 8 4 21 2 25 -7 17 -9 -8 -17 -6 -28 5 -17 17 -25 17 -81 4z"/> <path d="M1220 158 c14 -13 27 -22 30 -21 3 1 10 -3 16 -8 15 -12 26 12 14 31 -6 10 -8 10 -12 -1 -3 -10 -10 -9 -28 4 -35 25 -48 21 -20 -5z"/> <path d="M1050 145 c0 -29 8 -32 26 -7 19 24 17 32 -6 32 -15 0 -20 -7 -20 -25z"/> <path d="M660 139 c-13 -9 -13 -10 0 -8 33 3 40 -2 40 -31 0 -31 7 -34 48 -24 27 8 28 14 1 43 -15 16 -24 19 -29 12 -5 -9 -10 -7 -20 4 -15 18 -20 18 -40 4z"/> <path d="M1720 103 c-8 -21 -17 -42 -19 -47 -2 -5 2 -5 8 -1 7 4 16 18 22 32 5 13 13 22 17 19 4 -2 13 4 20 15 11 17 9 19 -11 19 -17 0 -27 -9 -37 -37z"/> <path d="M963 110 c-11 -16 -9 -23 13 -45 26 -26 45 -35 25 -12 -6 8 -8 17 -4 20 3 4 -1 7 -11 7 -13 0 -15 6 -10 25 7 30 3 32 -13 5z"/> <path d="M1201 116 c-6 -8 -11 -18 -10 -22 3 -21 -2 -35 -11 -29 -5 3 -10 1 -10 -4 0 -18 27 -12 34 6 6 15 9 15 17 3 9 -12 10 -12 5 3 -3 9 -9 24 -13 34 -4 11 -3 14 5 9 7 -4 12 -2 12 3 0 15 -15 14 -29 -3z"/> <path d="M1525 119 c-4 -6 -13 -8 -21 -5 -9 3 -14 -1 -14 -13 0 -19 19 -31 48 -31 13 1 12 4 -6 13 -21 12 -21 14 -5 30 10 9 14 17 11 17 -4 0 -10 -5 -13 -11z"/> <path d="M1653 116 c-6 -8 -9 -16 -6 -20 3 -3 -1 -16 -9 -28 -9 -15 -12 -32 -7 -48 6 -22 7 -23 8 -4 1 12 9 25 18 28 15 6 15 8 3 16 -11 7 -12 10 -2 10 9 0 11 7 7 19 -3 11 0 23 6 27 9 5 10 2 6 -9 -7 -19 8 -23 19 -6 3 6 0 15 -7 20 -18 11 -22 11 -36 -5z"/> <path d="M215 103 c-11 -3 -24 -10 -30 -15 -7 -8 -4 -9 8 -4 10 3 34 6 53 6 21 0 33 4 29 10 -6 10 -25 11 -60 3z"/> <path d="M290 92 c0 -10 71 -45 77 -38 3 2 -5 14 -16 25 -21 21 -61 29 -61 13z"/> <path d="M1007 88 c4 -7 8 -15 8 -18 0 -11 35 -53 39 -49 3 3 7 22 10 42 3 26 1 37 -8 37 -9 0 -12 -10 -10 -27 l4 -28 -12 28 c-7 15 -18 27 -26 27 -8 0 -10 -5 -5 -12z"/> <path d="M1420 86 c0 -9 5 -16 11 -16 7 0 9 -10 5 -27 -5 -22 -4 -25 4 -13 9 11 13 12 17 3 6 -18 23 -16 23 1 0 8 6 17 13 20 6 3 3 4 -9 1 -20 -5 -54 20 -46 34 2 3 -1 7 -7 9 -6 2 -11 -3 -11 -12z"/> <path d="M1104 68 c3 -13 6 -28 6 -34 0 -7 7 -14 15 -18 13 -5 14 -2 5 15 -8 15 -8 24 0 33 8 10 6 15 -6 20 -25 9 -27 8 -20 -16z"/> <path d="M426 54 c-4 -11 -2 -15 7 -11 7 3 21 -1 32 -9 26 -19 51 -19 33 0 -7 8 -16 12 -19 10 -4 -2 -9 3 -13 11 -7 20 -32 19 -40 -1z"/> <path d="M910 41 c0 -7 5 -9 10 -6 6 3 10 -1 10 -9 0 -30 90 -35 97 -6 3 9 1 11 -4 5 -11 -15 -73 -18 -73 -5 0 6 4 9 9 5 5 -3 12 -1 16 5 3 5 0 10 -7 10 -7 0 -23 3 -35 6 -14 4 -23 2 -23 -5z"/> <path d="M1190 23 l-25 -26 25 13 c14 7 28 18 32 24 5 7 8 7 8 -2 0 -7 5 -10 10 -7 16 10 11 25 -7 24 -10 -1 -29 -12 -43 -26z"/> <path d="M236 32 c-3 -3 -3 -9 0 -13 7 -12 54 -12 54 0 0 10 -47 21 -54 13z"/> </g> </svg> 